# xmcd
#
# Track frame offsets:
#   150
#   21152
#   38051
#   56968
#   75360
#   93639
#   110988
#   128262
#   146541
#   172808
#   196682
#
# Disc length: 2910 seconds
#
# Revision: 0
# Processed by: cddbd v1.5.2PL0 Copyright (c) Steve Scherf et al.
# Submitted via: GXTranscoder 2.0.1939
#
DISCID=880b5c0b
DTITLE=ADELE - 21
DYEAR=2011
DGENRE=Country
TTITLE0=Rolling in the Deep
TTITLE1=Rumour Has It
TTITLE2=Turning Tables
TTITLE3=Don't You Remember
TTITLE4=Set Fire to the Rain
TTITLE5=He Won't Go
TTITLE6=Take It All
TTITLE7=I'll Be Waiting
TTITLE8=One and Only
TTITLE9=Lovesong
TTITLE10=Someone Like You
EXTD=
EXTT0=
EXTT1=
EXTT2=
EXTT3=
EXTT4=
EXTT5=
EXTT6=
EXTT7=
EXTT8=
EXTT9=
EXTT10=
PLAYORDER=
